<?xml version="1.0" standalone="no"?>
<!DOCTYPE svg PUBLIC "-//W3C//DTD SVG 20010904//EN"
 "http://www.w3.org/TR/2001/REC-SVG-20010904/DTD/svg10.dtd">
<svg version="1.0" xmlns="http://www.w3.org/2000/svg"
 width="260.000000pt" height="260.000000pt" viewBox="0 0 260.000000 260.000000"
 preserveAspectRatio="xMidYMid meet">
<metadata>
Created by potrace 1.11, written by Peter Selinger 2001-2013
</metadata>
<g transform="translate(0.000000,260.000000) scale(0.100000,-0.100000)"
fill="#000000" stroke="none">
<path d="M850 2439 c-228 -60 -415 -211 -522 -422 -60 -121 -81 -209 -81 -357
-1 -153 15 -226 84 -366 79 -163 228 -306 392 -379 109 -48 172 -59 367 -65
l185 -5 0 -363 0 -362 137 0 138 0 2 363 3 362 250 2 250 2 0 118 0 118 -252
3 -253 2 0 185 0 185 253 0 252 0 -4 48 c-2 26 -6 41 -8 35 -7 -19 -1219 -19
-1226 0 -3 6 -6 -9 -6 -35 l-1 -48 233 -2 232 -3 3 -182 2 -183 -157 0 c-238
0 -337 35 -469 165 -179 176 -222 424 -113 652 23 49 54 89 108 143 121 121
238 170 401 170 143 0 260 -42 371 -134 l56 -46 142 0 142 0 -16 29 c-26 51
-113 153 -178 208 -78 66 -218 137 -321 163 -108 27 -291 27 -396 -1z"/>
</g>
</svg>
